{
	"patcher" : 	{
		"fileversion" : 1,
		"appversion" : 		{
			"major" : 8,
			"minor" : 1,
			"revision" : 1,
			"architecture" : "x64",
			"modernui" : 1
		}
,
		"classnamespace" : "box",
		"rect" : [ 522.0, 79.0, 996.0, 932.0 ],
		"bglocked" : 0,
		"openinpresentation" : 1,
		"default_fontsize" : 12.0,
		"default_fontface" : 0,
		"default_fontname" : "Arial",
		"gridonopen" : 1,
		"gridsize" : [ 15.0, 15.0 ],
		"gridsnaponopen" : 1,
		"objectsnaponopen" : 1,
		"statusbarvisible" : 2,
		"toolbarvisible" : 1,
		"lefttoolbarpinned" : 0,
		"toptoolbarpinned" : 0,
		"righttoolbarpinned" : 0,
		"bottomtoolbarpinned" : 0,
		"toolbars_unpinned_last_save" : 0,
		"tallnewobj" : 0,
		"boxanimatetime" : 200,
		"enablehscroll" : 1,
		"enablevscroll" : 1,
		"devicewidth" : 0.0,
		"description" : "",
		"digest" : "",
		"tags" : "",
		"style" : "",
		"subpatcher_template" : "",
		"boxes" : [ 			{
				"box" : 				{
					"id" : "obj-30",
					"maxclass" : "newobj",
					"numinlets" : 1,
					"numoutlets" : 1,
					"outlettype" : [ "multichannelsignal" ],
					"patcher" : 					{
						"fileversion" : 1,
						"appversion" : 						{
							"major" : 8,
							"minor" : 1,
							"revision" : 1,
							"architecture" : "x64",
							"modernui" : 1
						}
,
						"classnamespace" : "box",
						"rect" : [ 59.0, 104.0, 640.0, 480.0 ],
						"bglocked" : 0,
						"openinpresentation" : 0,
						"default_fontsize" : 12.0,
						"default_fontface" : 0,
						"default_fontname" : "Arial",
						"gridonopen" : 1,
						"gridsize" : [ 15.0, 15.0 ],
						"gridsnaponopen" : 1,
						"objectsnaponopen" : 1,
						"statusbarvisible" : 2,
						"toolbarvisible" : 1,
						"lefttoolbarpinned" : 0,
						"toptoolbarpinned" : 0,
						"righttoolbarpinned" : 0,
						"bottomtoolbarpinned" : 0,
						"toolbars_unpinned_last_save" : 0,
						"tallnewobj" : 0,
						"boxanimatetime" : 200,
						"enablehscroll" : 1,
						"enablevscroll" : 1,
						"devicewidth" : 0.0,
						"description" : "",
						"digest" : "",
						"tags" : "",
						"style" : "",
						"subpatcher_template" : "",
						"boxes" : [ 							{
								"box" : 								{
									"id" : "obj-27",
									"maxclass" : "newobj",
									"numinlets" : 1,
									"numoutlets" : 1,
									"outlettype" : [ "multichannelsignal" ],
									"patching_rect" : [ 50.0, 346.0, 65.0, 22.0 ],
									"text" : "mc.dbtoa~"
								}

							}
, 							{
								"box" : 								{
									"id" : "obj-26",
									"maxclass" : "newobj",
									"numinlets" : 6,
									"numoutlets" : 1,
									"outlettype" : [ "multichannelsignal" ],
									"patching_rect" : [ 50.0, 315.0, 114.0, 22.0 ],
									"text" : "mc.scale~ 0 1 -70 0"
								}

							}
, 							{
								"box" : 								{
									"id" : "obj-25",
									"maxclass" : "newobj",
									"numinlets" : 2,
									"numoutlets" : 1,
									"outlettype" : [ "multichannelsignal" ],
									"patching_rect" : [ 50.0, 286.0, 70.0, 22.0 ],
									"text" : "mc.pack~ 2"
								}

							}
, 							{
								"box" : 								{
									"id" : "obj-24",
									"maxclass" : "newobj",
									"numinlets" : 3,
									"numoutlets" : 1,
									"outlettype" : [ "signal" ],
									"patching_rect" : [ 101.0, 253.0, 60.0, 22.0 ],
									"text" : "clip~ 0. 1."
								}

							}
, 							{
								"box" : 								{
									"id" : "obj-8",
									"maxclass" : "newobj",
									"numinlets" : 1,
									"numoutlets" : 1,
									"outlettype" : [ "signal" ],
									"patching_rect" : [ 101.0, 225.0, 34.0, 22.0 ],
									"text" : "cos~"
								}

							}
, 							{
								"box" : 								{
									"id" : "obj-7",
									"maxclass" : "newobj",
									"numinlets" : 1,
									"numoutlets" : 1,
									"outlettype" : [ "signal" ],
									"patching_rect" : [ 50.0, 225.0, 34.0, 22.0 ],
									"text" : "cos~"
								}

							}
, 							{
								"box" : 								{
									"id" : "obj-1",
									"maxclass" : "newobj",
									"numinlets" : 2,
									"numoutlets" : 1,
									"outlettype" : [ "signal" ],
									"patching_rect" : [ 101.0, 197.0, 49.0, 22.0 ],
									"text" : "+~ 0.75"
								}

							}
, 							{
								"box" : 								{
									"id" : "obj-20",
									"maxclass" : "message",
									"numinlets" : 2,
									"numoutlets" : 1,
									"outlettype" : [ "" ],
									"patching_rect" : [ 50.0, 132.0, 45.0, 22.0 ],
									"text" : "$1 100"
								}

							}
, 							{
								"box" : 								{
									"id" : "obj-18",
									"maxclass" : "newobj",
									"numinlets" : 2,
									"numoutlets" : 2,
									"outlettype" : [ "signal", "bang" ],
									"patching_rect" : [ 50.0, 164.0, 34.0, 22.0 ],
									"text" : "line~"
								}

							}
, 							{
								"box" : 								{
									"id" : "obj-10",
									"maxclass" : "newobj",
									"numinlets" : 6,
									"numoutlets" : 1,
									"outlettype" : [ "" ],
									"patching_rect" : [ 50.0, 100.0, 127.0, 22.0 ],
									"text" : "scale 0 127 -0.25 0.25"
								}

							}
, 							{
								"box" : 								{
									"comment" : "",
									"id" : "obj-28",
									"index" : 1,
									"maxclass" : "inlet",
									"numinlets" : 0,
									"numoutlets" : 1,
									"outlettype" : [ "" ],
									"patching_rect" : [ 50.0, 40.0, 30.0, 30.0 ]
								}

							}
, 							{
								"box" : 								{
									"comment" : "",
									"id" : "obj-29",
									"index" : 1,
									"maxclass" : "outlet",
									"numinlets" : 1,
									"numoutlets" : 0,
									"patching_rect" : [ 50.0, 428.0, 30.0, 30.0 ]
								}

							}
 ],
						"lines" : [ 							{
								"patchline" : 								{
									"destination" : [ "obj-8", 0 ],
									"source" : [ "obj-1", 0 ]
								}

							}
, 							{
								"patchline" : 								{
									"destination" : [ "obj-20", 0 ],
									"source" : [ "obj-10", 0 ]
								}

							}
, 							{
								"patchline" : 								{
									"destination" : [ "obj-1", 0 ],
									"midpoints" : [ 59.5, 191.0, 110.5, 191.0 ],
									"order" : 0,
									"source" : [ "obj-18", 0 ]
								}

							}
, 							{
								"patchline" : 								{
									"destination" : [ "obj-7", 0 ],
									"order" : 1,
									"source" : [ "obj-18", 0 ]
								}

							}
, 							{
								"patchline" : 								{
									"destination" : [ "obj-18", 0 ],
									"source" : [ "obj-20", 0 ]
								}

							}
, 							{
								"patchline" : 								{
									"destination" : [ "obj-25", 1 ],
									"source" : [ "obj-24", 0 ]
								}

							}
, 							{
								"patchline" : 								{
									"destination" : [ "obj-26", 0 ],
									"source" : [ "obj-25", 0 ]
								}

							}
, 							{
								"patchline" : 								{
									"destination" : [ "obj-27", 0 ],
									"source" : [ "obj-26", 0 ]
								}

							}
, 							{
								"patchline" : 								{
									"destination" : [ "obj-29", 0 ],
									"source" : [ "obj-27", 0 ]
								}

							}
, 							{
								"patchline" : 								{
									"destination" : [ "obj-10", 0 ],
									"source" : [ "obj-28", 0 ]
								}

							}
, 							{
								"patchline" : 								{
									"destination" : [ "obj-25", 0 ],
									"source" : [ "obj-7", 0 ]
								}

							}
, 							{
								"patchline" : 								{
									"destination" : [ "obj-24", 0 ],
									"source" : [ "obj-8", 0 ]
								}

							}
 ]
					}
,
					"patching_rect" : [ 318.0, 377.0, 64.0, 22.0 ],
					"saved_object_attributes" : 					{
						"description" : "",
						"digest" : "",
						"globalpatchername" : "",
						"tags" : ""
					}
,
					"text" : "p setValue"
				}

			}
, 			{
				"box" : 				{
					"fontface" : 1,
					"fontsize" : 30.0,
					"id" : "obj-23",
					"maxclass" : "comment",
					"numinlets" : 1,
					"numoutlets" : 0,
					"patching_rect" : [ 24.0, 27.0, 222.0, 40.0 ],
					"presentation" : 1,
					"presentation_rect" : [ 24.0, 27.0, 222.0, 40.0 ],
					"text" : "SHIMMER"
				}

			}
, 			{
				"box" : 				{
					"id" : "obj-21",
					"maxclass" : "newobj",
					"numinlets" : 0,
					"numoutlets" : 1,
					"outlettype" : [ "" ],
					"patching_rect" : [ 318.0, 269.0, 62.0, 22.0 ],
					"text" : "r knob_33"
				}

			}
, 			{
				"box" : 				{
					"id" : "obj-19",
					"maxclass" : "newobj",
					"numinlets" : 0,
					"numoutlets" : 1,
					"outlettype" : [ "" ],
					"patching_rect" : [ 220.0, 307.0, 62.0, 22.0 ],
					"text" : "r knob_25"
				}

			}
, 			{
				"box" : 				{
					"id" : "obj-17",
					"maxclass" : "newobj",
					"numinlets" : 0,
					"numoutlets" : 1,
					"outlettype" : [ "" ],
					"patching_rect" : [ 122.0, 307.0, 62.0, 22.0 ],
					"text" : "r knob_17"
				}

			}
, 			{
				"box" : 				{
					"id" : "obj-16",
					"maxclass" : "newobj",
					"numinlets" : 6,
					"numoutlets" : 1,
					"outlettype" : [ "" ],
					"patching_rect" : [ 57.0, 473.0, 107.0, 22.0 ],
					"text" : "scale 0 127 -70. 0."
				}

			}
, 			{
				"box" : 				{
					"id" : "obj-15",
					"maxclass" : "newobj",
					"numinlets" : 0,
					"numoutlets" : 1,
					"outlettype" : [ "" ],
					"patching_rect" : [ 57.0, 440.0, 57.0, 22.0 ],
					"text" : "r fader_1"
				}

			}
, 			{
				"box" : 				{
					"channels" : 12,
					"id" : "obj-14",
					"lastchannelcount" : 12,
					"maxclass" : "mc.live.gain~",
					"numinlets" : 1,
					"numoutlets" : 4,
					"outlettype" : [ "multichannelsignal", "", "float", "list" ],
					"parameter_enable" : 1,
					"patching_rect" : [ 24.0, 509.0, 95.0, 126.0 ],
					"presentation" : 1,
					"presentation_rect" : [ 178.0, 81.0, 88.0, 232.0 ],
					"saved_attribute_attributes" : 					{
						"valueof" : 						{
							"parameter_mmax" : 6.0,
							"parameter_shortname" : "output",
							"parameter_type" : 0,
							"parameter_unitstyle" : 4,
							"parameter_mmin" : -70.0,
							"parameter_longname" : "mc.live.gain~[1]"
						}

					}
,
					"varname" : "mc.live.gain~"
				}

			}
, 			{
				"box" : 				{
					"id" : "obj-13",
					"maxclass" : "newobj",
					"numinlets" : 0,
					"numoutlets" : 1,
					"outlettype" : [ "" ],
					"patching_rect" : [ 95.0, 117.0, 55.0, 22.0 ],
					"text" : "r knob_9"
				}

			}
, 			{
				"box" : 				{
					"id" : "obj-12",
					"maxclass" : "newobj",
					"numinlets" : 0,
					"numoutlets" : 1,
					"outlettype" : [ "" ],
					"patching_rect" : [ 24.0, 89.0, 55.0, 22.0 ],
					"text" : "r knob_1"
				}

			}
, 			{
				"box" : 				{
					"id" : "obj-9",
					"maxclass" : "live.dial",
					"numinlets" : 1,
					"numoutlets" : 2,
					"outlettype" : [ "", "float" ],
					"parameter_enable" : 1,
					"patching_rect" : [ 318.0, 307.0, 75.0, 48.0 ],
					"presentation" : 1,
					"presentation_rect" : [ 101.0, 265.0, 75.0, 48.0 ],
					"saved_attribute_attributes" : 					{
						"valueof" : 						{
							"parameter_shortname" : "reverb_send",
							"parameter_type" : 0,
							"parameter_unitstyle" : 0,
							"parameter_longname" : "live.dial[5]"
						}

					}
,
					"varname" : "live.dial[4]"
				}

			}
, 			{
				"box" : 				{
					"id" : "obj-6",
					"maxclass" : "live.dial",
					"numinlets" : 1,
					"numoutlets" : 2,
					"outlettype" : [ "", "float" ],
					"parameter_enable" : 1,
					"patching_rect" : [ 220.0, 351.0, 41.0, 48.0 ],
					"presentation" : 1,
					"presentation_rect" : [ 118.0, 125.0, 41.0, 48.0 ],
					"saved_attribute_attributes" : 					{
						"valueof" : 						{
							"parameter_shortname" : "live.dial[1]",
							"parameter_type" : 0,
							"parameter_unitstyle" : 0,
							"parameter_longname" : "live.dial[2]"
						}

					}
,
					"varname" : "live.dial[1]"
				}

			}
, 			{
				"box" : 				{
					"id" : "obj-5",
					"maxclass" : "live.dial",
					"numinlets" : 1,
					"numoutlets" : 2,
					"outlettype" : [ "", "float" ],
					"parameter_enable" : 1,
					"patching_rect" : [ 122.0, 351.0, 41.0, 48.0 ],
					"presentation" : 1,
					"presentation_rect" : [ 118.0, 76.0, 41.0, 48.0 ],
					"saved_attribute_attributes" : 					{
						"valueof" : 						{
							"parameter_shortname" : "live.dial[1]",
							"parameter_type" : 0,
							"parameter_unitstyle" : 0,
							"parameter_longname" : "live.dial[1]"
						}

					}
,
					"varname" : "live.dial"
				}

			}
, 			{
				"box" : 				{
					"id" : "obj-4",
					"maxclass" : "newobj",
					"numinlets" : 1,
					"numoutlets" : 0,
					"patching_rect" : [ 24.0, 655.0, 120.0, 22.0 ],
					"text" : "mc.send~ outmodule"
				}

			}
, 			{
				"box" : 				{
					"id" : "obj-3",
					"maxclass" : "newobj",
					"numinlets" : 4,
					"numoutlets" : 1,
					"outlettype" : [ "multichannelsignal" ],
					"patcher" : 					{
						"fileversion" : 1,
						"appversion" : 						{
							"major" : 8,
							"minor" : 1,
							"revision" : 1,
							"architecture" : "x64",
							"modernui" : 1
						}
,
						"classnamespace" : "box",
						"rect" : [ 633.0, 109.0, 1253.0, 848.0 ],
						"bglocked" : 0,
						"openinpresentation" : 0,
						"default_fontsize" : 12.0,
						"default_fontface" : 0,
						"default_fontname" : "Arial",
						"gridonopen" : 1,
						"gridsize" : [ 15.0, 15.0 ],
						"gridsnaponopen" : 1,
						"objectsnaponopen" : 1,
						"statusbarvisible" : 2,
						"toolbarvisible" : 1,
						"lefttoolbarpinned" : 0,
						"toptoolbarpinned" : 0,
						"righttoolbarpinned" : 0,
						"bottomtoolbarpinned" : 0,
						"toolbars_unpinned_last_save" : 0,
						"tallnewobj" : 0,
						"boxanimatetime" : 200,
						"enablehscroll" : 1,
						"enablevscroll" : 1,
						"devicewidth" : 0.0,
						"description" : "",
						"digest" : "",
						"tags" : "",
						"style" : "",
						"subpatcher_template" : "",
						"visible" : 1,
						"boxes" : [ 							{
								"box" : 								{
									"id" : "obj-8",
									"maxclass" : "newobj",
									"numinlets" : 2,
									"numoutlets" : 1,
									"outlettype" : [ "multichannelsignal" ],
									"patching_rect" : [ 226.0, 124.0, 40.0, 22.0 ],
									"text" : "mc.*~"
								}

							}
, 							{
								"box" : 								{
									"id" : "obj-2",
									"maxclass" : "newobj",
									"numinlets" : 1,
									"numoutlets" : 2,
									"outlettype" : [ "signal", "signal" ],
									"patching_rect" : [ 182.0, 76.0, 84.0, 22.0 ],
									"text" : "mc.unpack~ 2"
								}

							}
, 							{
								"box" : 								{
									"id" : "obj-21",
									"maxclass" : "newobj",
									"numinlets" : 3,
									"numoutlets" : 1,
									"outlettype" : [ "multichannelsignal" ],
									"patching_rect" : [ 22.0, 164.0, 223.0, 22.0 ],
									"text" : "mc.combine~ 3 @chans 12"
								}

							}
, 							{
								"box" : 								{
									"id" : "obj-17",
									"maxclass" : "newobj",
									"numinlets" : 2,
									"numoutlets" : 1,
									"outlettype" : [ "multichannelsignal" ],
									"patching_rect" : [ 161.0, 124.0, 40.0, 22.0 ],
									"text" : "mc.*~"
								}

							}
, 							{
								"box" : 								{
									"id" : "obj-16",
									"maxclass" : "newobj",
									"numinlets" : 3,
									"numoutlets" : 1,
									"outlettype" : [ "multichannelsignal" ],
									"patcher" : 									{
										"fileversion" : 1,
										"appversion" : 										{
											"major" : 8,
											"minor" : 1,
											"revision" : 1,
											"architecture" : "x64",
											"modernui" : 1
										}
,
										"classnamespace" : "box",
										"rect" : [ 520.0, 79.0, 1490.0, 1048.0 ],
										"bglocked" : 0,
										"openinpresentation" : 0,
										"default_fontsize" : 12.0,
										"default_fontface" : 0,
										"default_fontname" : "Arial",
										"gridonopen" : 1,
										"gridsize" : [ 15.0, 15.0 ],
										"gridsnaponopen" : 1,
										"objectsnaponopen" : 1,
										"statusbarvisible" : 2,
										"toolbarvisible" : 1,
										"lefttoolbarpinned" : 0,
										"toptoolbarpinned" : 0,
										"righttoolbarpinned" : 0,
										"bottomtoolbarpinned" : 0,
										"toolbars_unpinned_last_save" : 0,
										"tallnewobj" : 0,
										"boxanimatetime" : 200,
										"enablehscroll" : 1,
										"enablevscroll" : 1,
										"devicewidth" : 0.0,
										"description" : "",
										"digest" : "",
										"tags" : "",
										"style" : "",
										"subpatcher_template" : "",
										"visible" : 1,
										"boxes" : [ 											{
												"box" : 												{
													"id" : "obj-2",
													"maxclass" : "newobj",
													"numinlets" : 1,
													"numoutlets" : 1,
													"outlettype" : [ "" ],
													"patching_rect" : [ 1069.0, 788.0, 90.0, 22.0 ],
													"text" : "loadmess 1500"
												}

											}
, 											{
												"box" : 												{
													"id" : "obj-103",
													"maxclass" : "newobj",
													"numinlets" : 6,
													"numoutlets" : 1,
													"outlettype" : [ "" ],
													"patching_rect" : [ 106.0, 380.0, 83.0, 22.0 ],
													"text" : "scale 0 63 0 8"
												}

											}
, 											{
												"box" : 												{
													"id" : "obj-92",
													"linecount" : 7,
													"maxclass" : "message",
													"numinlets" : 2,
													"numoutlets" : 1,
													"outlettype" : [ "" ],
													"patching_rect" : [ 106.0, 553.0, 52.0, 102.0 ],
													"text" : "chord 36 1 48 0 24 0 43 0 31 0 60 0 12 0 55 0 19 0"
												}

											}
, 											{
												"box" : 												{
													"coll_data" : 													{
														"count" : 9,
														"data" : [ 															{
																"key" : 0,
																"value" : [ "chord", 36, 1, 48, 0, 24, 0, 43, 0, 31, 0, 60, 0, 12, 0, 55, 0, 19, 0 ]
															}
, 															{
																"key" : 1,
																"value" : [ "chord", 36, 1, 48, 1, 24, 0, 43, 0, 31, 0, 60, 0, 12, 0, 55, 0, 19, 0 ]
															}
, 															{
																"key" : 2,
																"value" : [ "chord", 36, 1, 48, 1, 24, 1, 43, 0, 31, 0, 60, 0, 12, 0, 55, 0, 19, 0 ]
															}
, 															{
																"key" : 3,
																"value" : [ "chord", 36, 1, 48, 1, 24, 1, 43, 1, 31, 0, 60, 0, 12, 0, 55, 0, 19, 0 ]
															}
, 															{
																"key" : 4,
																"value" : [ "chord", 36, 1, 48, 1, 24, 1, 43, 1, 31, 1, 60, 0, 12, 0, 55, 0, 19, 0 ]
															}
, 															{
																"key" : 5,
																"value" : [ "chord", 36, 1, 48, 1, 24, 1, 43, 1, 31, 1, 60, 1, 12, 0, 55, 0, 19, 0 ]
															}
, 															{
																"key" : 6,
																"value" : [ "chord", 36, 1, 48, 1, 24, 1, 43, 1, 31, 1, 60, 1, 12, 1, 55, 0, 19, 0 ]
															}
, 															{
																"key" : 7,
																"value" : [ "chord", 36, 1, 48, 1, 24, 1, 43, 1, 31, 1, 60, 1, 12, 1, 55, 1, 19, 0 ]
															}
, 															{
																"key" : 8,
																"value" : [ "chord", 36, 1, 48, 1, 24, 1, 43, 1, 31, 1, 60, 1, 12, 1, 55, 1, 19, 1 ]
															}
 ]
													}
,
													"id" : "obj-84",
													"maxclass" : "newobj",
													"numinlets" : 1,
													"numoutlets" : 4,
													"outlettype" : [ "", "", "", "" ],
													"patching_rect" : [ 114.0, 484.0, 50.5, 22.0 ],
													"saved_object_attributes" : 													{
														"embed" : 1
													}
,
													"text" : "coll"
												}

											}
, 											{
												"box" : 												{
													"id" : "obj-66",
													"maxclass" : "newobj",
													"numinlets" : 3,
													"numoutlets" : 2,
													"outlettype" : [ "int", "int" ],
													"patching_rect" : [ 346.0, 280.0, 57.0, 22.0 ],
													"text" : "split 0 63"
												}

											}
, 											{
												"box" : 												{
													"format" : 6,
													"id" : "obj-57",
													"maxclass" : "flonum",
													"numinlets" : 1,
													"numoutlets" : 2,
													"outlettype" : [ "", "bang" ],
													"parameter_enable" : 0,
													"patching_rect" : [ 354.0, 411.0, 50.0, 22.0 ]
												}

											}
, 											{
												"box" : 												{
													"id" : "obj-55",
													"maxclass" : "newobj",
													"numinlets" : 6,
													"numoutlets" : 1,
													"outlettype" : [ "" ],
													"patching_rect" : [ 370.0, 370.0, 191.0, 22.0 ],
													"text" : "scale 64 127 0. 1.5 3.5 @classic 0"
												}

											}
, 											{
												"box" : 												{
													"id" : "obj-6",
													"maxclass" : "message",
													"numinlets" : 2,
													"numoutlets" : 1,
													"outlettype" : [ "" ],
													"patching_rect" : [ 1091.0, 125.0, 83.0, 22.0 ],
													"text" : "apply hanning"
												}

											}
, 											{
												"box" : 												{
													"id" : "obj-47",
													"maxclass" : "newobj",
													"numinlets" : 6,
													"numoutlets" : 1,
													"outlettype" : [ "" ],
													"patching_rect" : [ 1173.0, 779.0, 103.0, 22.0 ],
													"text" : "scale 0. 1. 0. 0.25"
												}

											}
, 											{
												"box" : 												{
													"id" : "obj-45",
													"maxclass" : "newobj",
													"numinlets" : 4,
													"numoutlets" : 1,
													"outlettype" : [ "multichannelsignal" ],
													"patching_rect" : [ 506.0, 1020.0, 70.0, 22.0 ],
													"text" : "mc.pack~ 4"
												}

											}
, 											{
												"box" : 												{
													"id" : "obj-31",
													"maxclass" : "newobj",
													"numinlets" : 2,
													"numoutlets" : 1,
													"outlettype" : [ "float" ],
													"patching_rect" : [ 146.0, 218.0, 39.0, 22.0 ],
													"text" : "/ 127."
												}

											}
, 											{
												"box" : 												{
													"id" : "obj-38",
													"maxclass" : "message",
													"numinlets" : 2,
													"numoutlets" : 1,
													"outlettype" : [ "" ],
													"patching_rect" : [ 1414.0, 323.0, 82.0, 22.0 ],
													"text" : "#0_window"
												}

											}
, 											{
												"box" : 												{
													"id" : "obj-36",
													"maxclass" : "message",
													"numinlets" : 2,
													"numoutlets" : 1,
													"outlettype" : [ "" ],
													"patching_rect" : [ 1317.0, 323.0, 68.0, 22.0 ],
													"text" : "#0_pitch"
												}

											}
, 											{
												"box" : 												{
													"id" : "obj-26",
													"maxclass" : "newobj",
													"numinlets" : 1,
													"numoutlets" : 1,
													"outlettype" : [ "" ],
													"patching_rect" : [ 1414.0, 353.0, 109.0, 22.0 ],
													"text" : "prepend WINDOW"
												}

											}
, 											{
												"box" : 												{
													"id" : "obj-11",
													"maxclass" : "message",
													"numinlets" : 2,
													"numoutlets" : 1,
													"outlettype" : [ "" ],
													"patching_rect" : [ 890.500000000000227, 123.0, 134.0, 22.0 ],
													"text" : "fill 1, apply hanning"
												}

											}
, 											{
												"box" : 												{
													"id" : "obj-8",
													"maxclass" : "newobj",
													"numinlets" : 1,
													"numoutlets" : 2,
													"outlettype" : [ "float", "bang" ],
													"patching_rect" : [ 890.500000000000227, 153.0, 210.0, 22.0 ],
													"text" : "buffer~ #0_window @samps 48000"
												}

											}
, 											{
												"box" : 												{
													"id" : "obj-7",
													"maxclass" : "newobj",
													"numinlets" : 1,
													"numoutlets" : 1,
													"outlettype" : [ "" ],
													"patching_rect" : [ 1317.0, 353.0, 92.0, 22.0 ],
													"text" : "prepend PITCH"
												}

											}
, 											{
												"box" : 												{
													"id" : "obj-20",
													"maxclass" : "newobj",
													"numinlets" : 1,
													"numoutlets" : 5,
													"outlettype" : [ "bang", "bang", "bang", "bang", "bang" ],
													"patching_rect" : [ 729.500000000000227, 83.0, 180.0, 22.0 ],
													"text" : "t b b b b b"
												}

											}
, 											{
												"box" : 												{
													"id" : "obj-9",
													"maxclass" : "newobj",
													"numinlets" : 2,
													"numoutlets" : 1,
													"outlettype" : [ "bang" ],
													"patching_rect" : [ 729.500000000000227, 183.0, 56.0, 22.0 ],
													"text" : "del 1000"
												}

											}
, 											{
												"box" : 												{
													"appearance" : 2,
													"fontname" : "Ricty Diminished Regular",
													"fontsize" : 12.0,
													"id" : "obj-27",
													"maxclass" : "live.dial",
													"numinlets" : 1,
													"numoutlets" : 2,
													"outlettype" : [ "", "float" ],
													"parameter_enable" : 1,
													"patching_rect" : [ 786.0, 837.0, 70.0, 80.0 ],
													"saved_attribute_attributes" : 													{
														"valueof" : 														{
															"parameter_mmax" : 10000.0,
															"parameter_initial" : [ 150 ],
															"parameter_shortname" : "len_max",
															"parameter_type" : 0,
															"parameter_unitstyle" : 1,
															"parameter_mmin" : 1.0,
															"parameter_longname" : "len_max",
															"parameter_initial_enable" : 1
														}

													}
,
													"varname" : "live.dial[9]"
												}

											}
, 											{
												"box" : 												{
													"appearance" : 2,
													"fontname" : "Ricty Diminished Regular",
													"fontsize" : 12.0,
													"id" : "obj-25",
													"maxclass" : "live.dial",
													"numinlets" : 1,
													"numoutlets" : 2,
													"outlettype" : [ "", "float" ],
													"parameter_enable" : 1,
													"patching_rect" : [ 716.0, 837.0, 70.0, 80.0 ],
													"saved_attribute_attributes" : 													{
														"valueof" : 														{
															"parameter_mmax" : 10000.0,
															"parameter_initial" : [ 20 ],
															"parameter_shortname" : "len_min",
															"parameter_type" : 0,
															"parameter_unitstyle" : 1,
															"parameter_mmin" : 1.0,
															"parameter_longname" : "len_min",
															"parameter_initial_enable" : 1
														}

													}
,
													"varname" : "live.dial[7]"
												}

											}
, 											{
												"box" : 												{
													"appearance" : 2,
													"fontname" : "Ricty Diminished Regular",
													"fontsize" : 12.0,
													"id" : "obj-23",
													"maxclass" : "live.dial",
													"numinlets" : 1,
													"numoutlets" : 2,
													"outlettype" : [ "", "float" ],
													"parameter_enable" : 1,
													"patching_rect" : [ 646.0, 837.0, 70.0, 80.0 ],
													"saved_attribute_attributes" : 													{
														"valueof" : 														{
															"parameter_mmax" : 1000.0,
															"parameter_initial" : [ 32 ],
															"parameter_shortname" : "grain_num",
															"parameter_type" : 0,
															"parameter_unitstyle" : 0,
															"parameter_linknames" : 1,
															"parameter_longname" : "live.dial[68]",
															"parameter_initial_enable" : 1
														}

													}
,
													"varname" : "live.dial[6]"
												}

											}
, 											{
												"box" : 												{
													"appearance" : 2,
													"fontname" : "Ricty Diminished Regular",
													"fontsize" : 12.0,
													"id" : "obj-17",
													"maxclass" : "live.dial",
													"numinlets" : 1,
													"numoutlets" : 2,
													"outlettype" : [ "", "float" ],
													"parameter_enable" : 1,
													"patching_rect" : [ 856.0, 837.0, 70.0, 80.0 ],
													"saved_attribute_attributes" : 													{
														"valueof" : 														{
															"parameter_mmax" : 1.0,
															"parameter_initial" : [ 0.0 ],
															"parameter_shortname" : "gain_min",
															"parameter_type" : 0,
															"parameter_unitstyle" : 1,
															"parameter_longname" : "gain_min",
															"parameter_initial_enable" : 1
														}

													}
,
													"varname" : "live.dial[4]"
												}

											}
, 											{
												"box" : 												{
													"appearance" : 2,
													"fontname" : "Ricty Diminished Regular",
													"fontsize" : 12.0,
													"id" : "obj-18",
													"maxclass" : "live.dial",
													"numinlets" : 1,
													"numoutlets" : 2,
													"outlettype" : [ "", "float" ],
													"parameter_enable" : 1,
													"patching_rect" : [ 926.0, 837.0, 70.0, 80.0 ],
													"saved_attribute_attributes" : 													{
														"valueof" : 														{
															"parameter_mmax" : 1.0,
															"parameter_initial" : [ 1.0 ],
															"parameter_shortname" : "gain_max",
															"parameter_type" : 0,
															"parameter_unitstyle" : 1,
															"parameter_longname" : "gain_max",
															"parameter_initial_enable" : 1
														}

													}
,
													"varname" : "live.dial[5]"
												}

											}
, 											{
												"box" : 												{
													"appearance" : 2,
													"fontname" : "Ricty Diminished Regular",
													"fontsize" : 12.0,
													"id" : "obj-10",
													"maxclass" : "live.dial",
													"numinlets" : 1,
													"numoutlets" : 2,
													"outlettype" : [ "", "float" ],
													"parameter_enable" : 1,
													"patching_rect" : [ 996.0, 837.0, 70.0, 80.0 ],
													"saved_attribute_attributes" : 													{
														"valueof" : 														{
															"parameter_mmax" : 1.0,
															"parameter_initial" : [ 0 ],
															"parameter_shortname" : "st_spread",
															"parameter_type" : 0,
															"parameter_unitstyle" : 1,
															"parameter_longname" : "st_spread",
															"parameter_initial_enable" : 1
														}

													}
,
													"varname" : "live.dial[3]"
												}

											}
, 											{
												"box" : 												{
													"appearance" : 2,
													"fontname" : "Ricty Diminished Regular",
													"fontsize" : 12.0,
													"id" : "obj-12",
													"maxclass" : "live.dial",
													"numinlets" : 1,
													"numoutlets" : 2,
													"outlettype" : [ "", "float" ],
													"parameter_enable" : 1,
													"patching_rect" : [ 1066.0, 837.0, 70.0, 80.0 ],
													"saved_attribute_attributes" : 													{
														"valueof" : 														{
															"parameter_mmax" : 10000.0,
															"parameter_initial" : [ 20 ],
															"parameter_shortname" : "blur_pos",
															"parameter_type" : 0,
															"parameter_unitstyle" : 1,
															"parameter_longname" : "blur_pos",
															"parameter_initial_enable" : 1
														}

													}
,
													"varname" : "live.dial[2]"
												}

											}
, 											{
												"box" : 												{
													"appearance" : 2,
													"fontname" : "Ricty Diminished Regular",
													"fontsize" : 12.0,
													"id" : "obj-16",
													"maxclass" : "live.dial",
													"numinlets" : 1,
													"numoutlets" : 2,
													"outlettype" : [ "", "float" ],
													"parameter_enable" : 1,
													"patching_rect" : [ 1136.0, 837.0, 70.0, 80.0 ],
													"saved_attribute_attributes" : 													{
														"valueof" : 														{
															"parameter_mmax" : 100.0,
															"parameter_shortname" : "blur_pit",
															"parameter_type" : 0,
															"parameter_unitstyle" : 1,
															"parameter_longname" : "blur_pit"
														}

													}
,
													"varname" : "live.dial[1]"
												}

											}
, 											{
												"box" : 												{
													"appearance" : 2,
													"fontname" : "Ricty Diminished Regular",
													"fontsize" : 12.0,
													"id" : "obj-19",
													"maxclass" : "live.dial",
													"numinlets" : 1,
													"numoutlets" : 2,
													"outlettype" : [ "", "float" ],
													"parameter_enable" : 1,
													"patching_rect" : [ 1206.0, 837.0, 70.0, 80.0 ],
													"saved_attribute_attributes" : 													{
														"valueof" : 														{
															"parameter_mmax" : 1.0,
															"parameter_shortname" : "feedback DANGER!!!",
															"parameter_type" : 0,
															"parameter_unitstyle" : 1,
															"parameter_longname" : "feedback"
														}

													}
,
													"varname" : "live.dial"
												}

											}
, 											{
												"box" : 												{
													"id" : "obj-88",
													"maxclass" : "newobj",
													"numinlets" : 1,
													"numoutlets" : 1,
													"outlettype" : [ "list" ],
													"patching_rect" : [ 568.250000000000227, 716.0, 80.0, 22.0 ],
													"text" : "listfunnel 0"
												}

											}
, 											{
												"box" : 												{
													"id" : "obj-80",
													"maxclass" : "newobj",
													"numinlets" : 1,
													"numoutlets" : 1,
													"outlettype" : [ "" ],
													"patching_rect" : [ 568.250000000000227, 686.0, 212.0, 22.0 ],
													"text" : "vexpr pow(2\\, $f1/12) @scalarmode 1"
												}

											}
, 											{
												"box" : 												{
													"id" : "obj-136",
													"maxclass" : "newobj",
													"numinlets" : 1,
													"numoutlets" : 2,
													"outlettype" : [ "bang", "int" ],
													"patching_rect" : [ 729.500000000000227, 333.0, 38.0, 22.0 ],
													"text" : "t b i"
												}

											}
, 											{
												"box" : 												{
													"id" : "obj-129",
													"maxclass" : "newobj",
													"numinlets" : 2,
													"numoutlets" : 2,
													"outlettype" : [ "", "" ],
													"patching_rect" : [ 568.250000000000227, 656.0, 74.0, 22.0 ],
													"text" : "zl.group 73"
												}

											}
, 											{
												"box" : 												{
													"id" : "obj-117",
													"maxclass" : "newobj",
													"numinlets" : 1,
													"numoutlets" : 1,
													"outlettype" : [ "" ],
													"patching_rect" : [ 568.250000000000227, 503.0, 32.0, 22.0 ],
													"text" : "iter"
												}

											}
, 											{
												"box" : 												{
													"id" : "obj-85",
													"maxclass" : "newobj",
													"numinlets" : 1,
													"numoutlets" : 1,
													"outlettype" : [ "" ],
													"patching_rect" : [ 568.250000000000227, 533.0, 86.0, 22.0 ],
													"text" : "prepend pitch"
												}

											}
, 											{
												"box" : 												{
													"id" : "obj-77",
													"maxclass" : "newobj",
													"numinlets" : 1,
													"numoutlets" : 1,
													"outlettype" : [ "" ],
													"patching_rect" : [ 853.500000000000227, 753.0, 86.0, 22.0 ],
													"text" : "prepend scale"
												}

											}
, 											{
												"box" : 												{
													"id" : "obj-76",
													"maxclass" : "newobj",
													"numinlets" : 1,
													"numoutlets" : 1,
													"outlettype" : [ "bang" ],
													"patching_rect" : [ 729.500000000000227, 52.0, 58.0, 22.0 ],
													"text" : "loadbang"
												}

											}
, 											{
												"box" : 												{
													"id" : "obj-35",
													"linecount" : 3,
													"maxclass" : "newobj",
													"numinlets" : 1,
													"numoutlets" : 2,
													"outlettype" : [ "", "" ],
													"patching_rect" : [ 568.250000000000227, 583.0, 220.0, 49.0 ],
													"saved_object_attributes" : 													{
														"autostart" : 1,
														"defer" : 0,
														"watch" : 0
													}
,
													"text" : "node.script cs.module.rtGranulator_pitchMgr.js @autostart 1"
												}

											}
, 											{
												"box" : 												{
													"id" : "obj-32",
													"maxclass" : "newobj",
													"numinlets" : 2,
													"numoutlets" : 1,
													"outlettype" : [ "int" ],
													"patching_rect" : [ 890.500000000000227, 443.0, 32.0, 22.0 ],
													"text" : "- 36"
												}

											}
, 											{
												"box" : 												{
													"id" : "obj-274",
													"maxclass" : "newobj",
													"numinlets" : 1,
													"numoutlets" : 2,
													"outlettype" : [ "", "int" ],
													"patching_rect" : [ 990.500000000000227, 553.0, 81.0, 22.0 ],
													"text" : "t s 1"
												}

											}
, 											{
												"box" : 												{
													"id" : "obj-273",
													"maxclass" : "newobj",
													"numinlets" : 1,
													"numoutlets" : 2,
													"outlettype" : [ "", "int" ],
													"patching_rect" : [ 1090.500000000000227, 553.0, 81.0, 22.0 ],
													"text" : "t s 2"
												}

											}
, 											{
												"box" : 												{
													"id" : "obj-271",
													"maxclass" : "newobj",
													"numinlets" : 2,
													"numoutlets" : 2,
													"outlettype" : [ "", "" ],
													"patching_rect" : [ 853.500000000000227, 693.0, 56.0, 22.0 ],
													"text" : "gate 2"
												}

											}
, 											{
												"box" : 												{
													"id" : "obj-268",
													"maxclass" : "newobj",
													"numinlets" : 2,
													"numoutlets" : 2,
													"outlettype" : [ "", "" ],
													"patching_rect" : [ 853.500000000000227, 723.0, 56.0, 22.0 ],
													"text" : "zl.group"
												}

											}
, 											{
												"box" : 												{
													"id" : "obj-265",
													"maxclass" : "newobj",
													"numinlets" : 1,
													"numoutlets" : 1,
													"outlettype" : [ "" ],
													"patching_rect" : [ 990.500000000000227, 583.0, 63.0, 22.0 ],
													"text" : "append -1"
												}

											}
, 											{
												"box" : 												{
													"id" : "obj-242",
													"maxclass" : "newobj",
													"numinlets" : 1,
													"numoutlets" : 4,
													"outlettype" : [ "dump", "sort", "length", "" ],
													"patching_rect" : [ 890.500000000000227, 523.0, 319.000000000000455, 22.0 ],
													"text" : "t dump sort length l"
												}

											}
, 											{
												"box" : 												{
													"id" : "obj-239",
													"maxclass" : "newobj",
													"numinlets" : 2,
													"numoutlets" : 1,
													"outlettype" : [ "int" ],
													"patching_rect" : [ 890.500000000000227, 363.0, 29.5, 22.0 ],
													"text" : "+ 1"
												}

											}
, 											{
												"box" : 												{
													"id" : "obj-240",
													"maxclass" : "newobj",
													"numinlets" : 2,
													"numoutlets" : 1,
													"outlettype" : [ "int" ],
													"patching_rect" : [ 890.500000000000227, 333.0, 32.0, 22.0 ],
													"text" : "!= 0"
												}

											}
, 											{
												"box" : 												{
													"id" : "obj-226",
													"maxclass" : "message",
													"numinlets" : 2,
													"numoutlets" : 1,
													"outlettype" : [ "" ],
													"patching_rect" : [ 890.500000000000227, 473.0, 65.0, 22.0 ],
													"text" : "remove $1"
												}

											}
, 											{
												"box" : 												{
													"id" : "obj-224",
													"maxclass" : "newobj",
													"numinlets" : 2,
													"numoutlets" : 2,
													"outlettype" : [ "", "" ],
													"patching_rect" : [ 890.500000000000227, 413.0, 117.0, 22.0 ],
													"text" : "gate 2"
												}

											}
, 											{
												"box" : 												{
													"id" : "obj-198",
													"maxclass" : "newobj",
													"numinlets" : 1,
													"numoutlets" : 3,
													"outlettype" : [ "int", "clear", "clear" ],
													"patching_rect" : [ 729.500000000000227, 213.0, 104.0, 22.0 ],
													"text" : "t 36 clear clear"
												}

											}
, 											{
												"box" : 												{
													"id" : "obj-154",
													"maxclass" : "message",
													"numinlets" : 2,
													"numoutlets" : 1,
													"outlettype" : [ "" ],
													"patching_rect" : [ 988.500000000000227, 473.0, 39.0, 22.0 ],
													"text" : "$1 $1"
												}

											}
, 											{
												"box" : 												{
													"id" : "obj-142",
													"maxclass" : "newobj",
													"numinlets" : 1,
													"numoutlets" : 4,
													"outlettype" : [ "", "", "", "" ],
													"patching_rect" : [ 890.500000000000227, 643.0, 62.0, 22.0 ],
													"saved_object_attributes" : 													{
														"embed" : 0
													}
,
													"text" : "coll note"
												}

											}
, 											{
												"box" : 												{
													"id" : "obj-87",
													"maxclass" : "newobj",
													"numinlets" : 2,
													"numoutlets" : 1,
													"outlettype" : [ "" ],
													"patching_rect" : [ 568.250000000000227, 473.0, 116.0, 22.0 ],
													"text" : "round 1 @nearest 0"
												}

											}
, 											{
												"box" : 												{
													"id" : "obj-72",
													"maxclass" : "newobj",
													"numinlets" : 2,
													"numoutlets" : 1,
													"outlettype" : [ "int" ],
													"patching_rect" : [ 988.500000000000227, 443.0, 32.0, 22.0 ],
													"text" : "- 36"
												}

											}
, 											{
												"box" : 												{
													"hkeycolor" : [ 0.890196078431372, 0.23921568627451, 0.466666666666667, 0.701960784313725 ],
													"id" : "obj-71",
													"maxclass" : "kslider",
													"mode" : 1,
													"numinlets" : 2,
													"numoutlets" : 2,
													"offset" : 0,
													"outlettype" : [ "int", "int" ],
													"parameter_enable" : 0,
													"patching_rect" : [ 729.500000000000227, 263.0, 473.0, 49.0 ],
													"range" : 73,
													"whitekeycolor" : [ 0.92156862745098, 0.917647058823529, 0.933333333333333, 0.0 ]
												}

											}
, 											{
												"box" : 												{
													"id" : "obj-21",
													"maxclass" : "newobj",
													"numinlets" : 1,
													"numoutlets" : 1,
													"outlettype" : [ "" ],
													"patcher" : 													{
														"fileversion" : 1,
														"appversion" : 														{
															"major" : 8,
															"minor" : 1,
															"revision" : 1,
															"architecture" : "x64",
															"modernui" : 1
														}
,
														"classnamespace" : "box",
														"rect" : [ 749.0, 102.0, 191.0, 383.0 ],
														"bglocked" : 0,
														"openinpresentation" : 0,
														"default_fontsize" : 12.0,
														"default_fontface" : 0,
														"default_fontname" : "Ricty Diminished Regular",
														"gridonopen" : 2,
														"gridsize" : [ 10.0, 10.0 ],
														"gridsnaponopen" : 2,
														"objectsnaponopen" : 1,
														"statusbarvisible" : 2,
														"toolbarvisible" : 1,
														"lefttoolbarpinned" : 0,
														"toptoolbarpinned" : 0,
														"righttoolbarpinned" : 0,
														"bottomtoolbarpinned" : 0,
														"toolbars_unpinned_last_save" : 0,
														"tallnewobj" : 0,
														"boxanimatetime" : 200,
														"enablehscroll" : 1,
														"enablevscroll" : 1,
														"devicewidth" : 0.0,
														"description" : "",
														"digest" : "",
														"tags" : "",
														"style" : "",
														"subpatcher_template" : "myTemplate",
														"boxes" : [ 															{
																"box" : 																{
																	"id" : "obj-10",
																	"maxclass" : "newobj",
																	"numinlets" : 3,
																	"numoutlets" : 1,
																	"outlettype" : [ "" ],
																	"patching_rect" : [ 30.0, 260.0, 68.0, 21.0 ],
																	"text" : "clip 0. 1."
																}

															}
, 															{
																"box" : 																{
																	"id" : "obj-176",
																	"maxclass" : "newobj",
																	"numinlets" : 2,
																	"numoutlets" : 1,
																	"outlettype" : [ "float" ],
																	"patching_rect" : [ 30.0, 150.0, 38.0, 21.0 ],
																	"text" : "/ 72."
																}

															}
, 															{
																"box" : 																{
																	"id" : "obj-28",
																	"maxclass" : "newobj",
																	"numinlets" : 1,
																	"numoutlets" : 2,
																	"outlettype" : [ "bang", "" ],
																	"patching_rect" : [ 30.0, 90.0, 89.0, 21.0 ],
																	"text" : "t b s"
																}

															}
, 															{
																"box" : 																{
																	"id" : "obj-27",
																	"maxclass" : "message",
																	"numinlets" : 2,
																	"numoutlets" : 1,
																	"outlettype" : [ "" ],
																	"patching_rect" : [ 100.0, 120.0, 74.0, 21.0 ],
																	"text" : "function $1"
																}

															}
, 															{
																"box" : 																{
																	"id" : "obj-7",
																	"maxclass" : "newobj",
																	"numinlets" : 2,
																	"numoutlets" : 3,
																	"outlettype" : [ "bang", "bang", "int" ],
																	"patching_rect" : [ 30.0, 120.0, 56.0, 21.0 ],
																	"text" : "uzi 73 0"
																}

															}
, 															{
																"box" : 																{
																	"id" : "obj-4",
																	"maxclass" : "newobj",
																	"numinlets" : 2,
																	"numoutlets" : 2,
																	"outlettype" : [ "", "" ],
																	"patching_rect" : [ 30.0, 230.0, 74.0, 21.0 ],
																	"text" : "zl.group 73"
																}

															}
, 															{
																"box" : 																{
																	"id" : "obj-1",
																	"maxclass" : "newobj",
																	"numinlets" : 1,
																	"numoutlets" : 1,
																	"outlettype" : [ "" ],
																	"patching_rect" : [ 30.0, 200.0, 104.0, 21.0 ],
																	"text" : "ease 0. 1. 0. 1."
																}

															}
, 															{
																"box" : 																{
																	"comment" : "",
																	"id" : "obj-231",
																	"index" : 1,
																	"maxclass" : "inlet",
																	"numinlets" : 0,
																	"numoutlets" : 1,
																	"outlettype" : [ "" ],
																	"patching_rect" : [ 30.0, 20.0, 30.0, 30.0 ]
																}

															}
, 															{
																"box" : 																{
																	"comment" : "",
																	"id" : "obj-232",
																	"index" : 1,
																	"maxclass" : "outlet",
																	"numinlets" : 1,
																	"numoutlets" : 0,
																	"patching_rect" : [ 30.0, 320.0, 30.0, 30.0 ]
																}

															}
 ],
														"lines" : [ 															{
																"patchline" : 																{
																	"destination" : [ "obj-4", 0 ],
																	"source" : [ "obj-1", 0 ]
																}

															}
, 															{
																"patchline" : 																{
																	"destination" : [ "obj-232", 0 ],
																	"source" : [ "obj-10", 0 ]
																}

															}
, 															{
																"patchline" : 																{
																	"destination" : [ "obj-1", 0 ],
																	"source" : [ "obj-176", 0 ]
																}

															}
, 															{
																"patchline" : 																{
																	"destination" : [ "obj-28", 0 ],
																	"source" : [ "obj-231", 0 ]
																}

															}
, 															{
																"patchline" : 																{
																	"destination" : [ "obj-1", 0 ],
																	"midpoints" : [ 109.5, 185.0, 39.5, 185.0 ],
																	"source" : [ "obj-27", 0 ]
																}

															}
, 															{
																"patchline" : 																{
																	"destination" : [ "obj-27", 0 ],
																	"source" : [ "obj-28", 1 ]
																}

															}
, 															{
																"patchline" : 																{
																	"destination" : [ "obj-7", 0 ],
																	"source" : [ "obj-28", 0 ]
																}

															}
, 															{
																"patchline" : 																{
																	"destination" : [ "obj-10", 0 ],
																	"source" : [ "obj-4", 0 ]
																}

															}
, 															{
																"patchline" : 																{
																	"destination" : [ "obj-176", 0 ],
																	"midpoints" : [ 76.5, 145.0, 39.5, 145.0 ],
																	"source" : [ "obj-7", 2 ]
																}

															}
 ]
													}
,
													"patching_rect" : [ 568.25, 333.0, 56.0, 22.0 ],
													"saved_object_attributes" : 													{
														"description" : "",
														"digest" : "",
														"fontname" : "Ricty Diminished Regular",
														"globalpatchername" : "",
														"tags" : ""
													}
,
													"text" : "p easing"
												}

											}
, 											{
												"box" : 												{
													"id" : "obj-24",
													"maxclass" : "message",
													"numinlets" : 2,
													"numoutlets" : 1,
													"outlettype" : [ "" ],
													"patching_rect" : [ 507.0, 333.0, 44.0, 22.0 ],
													"text" : "set $1"
												}

											}
, 											{
												"box" : 												{
													"fontname" : "Ricty Diminished Regular",
													"fontsize" : 12.0,
													"id" : "obj-67",
													"maxclass" : "live.numbox",
													"numinlets" : 1,
													"numoutlets" : 2,
													"outlettype" : [ "", "float" ],
													"parameter_enable" : 1,
													"patching_rect" : [ 507.0, 273.0, 36.0, 16.0 ],
													"saved_attribute_attributes" : 													{
														"valueof" : 														{
															"parameter_mmax" : 30.0,
															"parameter_shortname" : "live.numbox",
															"parameter_type" : 1,
															"parameter_unitstyle" : 0,
															"parameter_longname" : "live.numbox[24]"
														}

													}
,
													"varname" : "live.numbox[10]"
												}

											}
, 											{
												"box" : 												{
													"fontname" : "Ricty Diminished Regular",
													"fontsize" : 12.0,
													"id" : "obj-29",
													"maxclass" : "live.menu",
													"numinlets" : 1,
													"numoutlets" : 3,
													"outlettype" : [ "", "", "float" ],
													"parameter_enable" : 1,
													"patching_rect" : [ 507.0, 303.0, 141.5, 16.0 ],
													"saved_attribute_attributes" : 													{
														"valueof" : 														{
															"parameter_mmax" : 30,
															"parameter_initial" : [ 0 ],
															"parameter_shortname" : "live.menu",
															"parameter_enum" : [ "linear", "in_back", "in_bounce", "in_circular", "in_cubic", "in_elastic", "in_exponential", "in_quadratic", "in_quartic", "in_quintic", "in_sine", "in_out_back", "in_out_bounce", "in_out_circular", "in_out_cubic", "in_out_elastic", "in_out_exponential", "in_out_quadratic", "in_out_quartic", "in_out_quintic", "in_out_sine", "out_back", "out_bounce", "out_circular", "out_cubic", "out_elastic", "out_exponential", "out_quadratic", "out_quartic", "out_quintic", "out_sine" ],
															"parameter_type" : 2,
															"parameter_longname" : "live.menu[2]",
															"parameter_initial_enable" : 1
														}

													}
,
													"varname" : "live.menu[3]"
												}

											}
, 											{
												"box" : 												{
													"id" : "obj-37",
													"maxclass" : "newobj",
													"numinlets" : 1,
													"numoutlets" : 2,
													"outlettype" : [ "bang", "" ],
													"patching_rect" : [ 568.250000000000227, 363.0, 44.0, 22.0 ],
													"text" : "t b l"
												}

											}
, 											{
												"box" : 												{
													"id" : "obj-68",
													"maxclass" : "newobj",
													"numinlets" : 2,
													"numoutlets" : 2,
													"outlettype" : [ "", "" ],
													"patching_rect" : [ 568.250000000000227, 413.0, 44.0, 22.0 ],
													"text" : "zl.reg"
												}

											}
, 											{
												"box" : 												{
													"id" : "obj-44",
													"maxclass" : "newobj",
													"numinlets" : 6,
													"numoutlets" : 1,
													"outlettype" : [ "" ],
													"patching_rect" : [ 568.250000000000227, 443.0, 116.0, 22.0 ],
													"text" : "scale 0. 1. -36 36"
												}

											}
, 											{
												"box" : 												{
													"id" : "obj-22",
													"maxclass" : "newobj",
													"numinlets" : 3,
													"numoutlets" : 1,
													"outlettype" : [ "float" ],
													"patching_rect" : [ 568.250000000000227, 760.0, 104.0, 22.0 ],
													"text" : "peek~ #0_pitch"
												}

											}
, 											{
												"box" : 												{
													"id" : "obj-28",
													"maxclass" : "newobj",
													"numinlets" : 1,
													"numoutlets" : 2,
													"outlettype" : [ "float", "bang" ],
													"patching_rect" : [ 569.099999999999909, 790.0, 176.0, 22.0 ],
													"text" : "buffer~ #0_pitch @samps 73"
												}

											}
, 											{
												"box" : 												{
													"id" : "obj-30",
													"maxclass" : "newobj",
													"numinlets" : 11,
													"numoutlets" : 4,
													"outlettype" : [ "signal", "signal", "signal", "signal" ],
													"patcher" : 													{
														"fileversion" : 1,
														"appversion" : 														{
															"major" : 8,
															"minor" : 1,
															"revision" : 1,
															"architecture" : "x64",
															"modernui" : 1
														}
,
														"classnamespace" : "dsp.gen",
														"rect" : [ 187.0, 79.0, 1594.0, 1051.0 ],
														"bglocked" : 0,
														"openinpresentation" : 0,
														"default_fontsize" : 12.0,
														"default_fontface" : 0,
														"default_fontname" : "Ricty Diminished Regular",
														"gridonopen" : 2,
														"gridsize" : [ 10.0, 10.0 ],
														"gridsnaponopen" : 2,
														"objectsnaponopen" : 1,
														"statusbarvisible" : 2,
														"toolbarvisible" : 1,
														"lefttoolbarpinned" : 0,
														"toptoolbarpinned" : 0,
														"righttoolbarpinned" : 0,
														"bottomtoolbarpinned" : 0,
														"toolbars_unpinned_last_save" : 0,
														"tallnewobj" : 0,
														"boxanimatetime" : 200,
														"enablehscroll" : 1,
														"enablevscroll" : 1,
														"devicewidth" : 0.0,
														"description" : "",
														"digest" : "",
														"tags" : "",
														"style" : "",
														"subpatcher_template" : "myTemplate",
														"boxes" : [ 															{
																"box" : 																{
																	"id" : "obj-14",
																	"maxclass" : "newobj",
																	"numinlets" : 1,
																	"numoutlets" : 0,
																	"patching_rect" : [ 611.0, 1000.0, 164.0, 21.0 ],
																	"text" : "out 4 @comment \"output RR\""
																}

															}
, 															{
																"box" : 																{
																	"id" : "obj-15",
																	"maxclass" : "newobj",
																	"numinlets" : 1,
																	"numoutlets" : 0,
																	"patching_rect" : [ 414.0, 1000.0, 164.0, 21.0 ],
																	"text" : "out 3 @comment \"output LR\""
																}

															}
, 															{
																"box" : 																{
																	"id" : "obj-13",
																	"maxclass" : "newobj",
																	"numinlets" : 1,
																	"numoutlets" : 0,
																	"patching_rect" : [ 217.0, 1000.0, 164.0, 21.0 ],
																	"text" : "out 2 @comment \"output RF\""
																}

															}
, 															{
																"box" : 																{
																	"id" : "obj-32",
																	"linecount" : 3,
																	"maxclass" : "newobj",
																	"numinlets" : 0,
																	"numoutlets" : 1,
																	"outlettype" : [ "" ],
																	"patching_rect" : [ 1420.0, 20.0, 134.0, 46.0 ],
																	"text" : "in 11 @comment feedback @min 0 @max 1 @default 0"
																}

															}
, 															{
																"box" : 																{
																	"id" : "obj-10",
																	"linecount" : 3,
																	"maxclass" : "newobj",
																	"numinlets" : 0,
																	"numoutlets" : 1,
																	"outlettype" : [ "" ],
																	"patching_rect" : [ 1280.0, 20.0, 128.0, 46.0 ],
																	"text" : "in 10 @comment \"pitch blur amount\" @min 0 @default 0"
																}

															}
, 															{
																"box" : 																{
																	"id" : "obj-11",
																	"linecount" : 3,
																	"maxclass" : "newobj",
																	"numinlets" : 0,
																	"numoutlets" : 1,
																	"outlettype" : [ "" ],
																	"patching_rect" : [ 974.111111111111086, 20.0, 128.0, 46.0 ],
																	"text" : "in 8 @comment \"quad spread\" @min 0 @max 1 @default 0"
																}

															}
, 															{
																"box" : 																{
																	"id" : "obj-6",
																	"linecount" : 3,
																	"maxclass" : "newobj",
																	"numinlets" : 0,
																	"numoutlets" : 1,
																	"outlettype" : [ "" ],
																	"patching_rect" : [ 820.666666666666629, 20.0, 140.0, 46.0 ],
																	"text" : "in 7 @comment \"grain gain max\" @min 0 @max 1 @default 1"
																}

															}
, 															{
																"box" : 																{
																	"id" : "obj-5",
																	"linecount" : 3,
																	"maxclass" : "newobj",
																	"numinlets" : 0,
																	"numoutlets" : 1,
																	"outlettype" : [ "" ],
																	"patching_rect" : [ 667.222222222222172, 20.0, 140.0, 46.0 ],
																	"text" : "in 6 @comment \"grain gain min\" @min 0 @max 1 @default 0"
																}

															}
, 															{
																"box" : 																{
																	"id" : "obj-4",
																	"linecount" : 3,
																	"maxclass" : "newobj",
																	"numinlets" : 0,
																	"numoutlets" : 1,
																	"outlettype" : [ "" ],
																	"patching_rect" : [ 1130.0, 20.0, 146.0, 46.0 ],
																	"text" : "in 9 @comment \"position blur amount\" @min 0 @default 20"
																}

															}
, 															{
																"box" : 																{
																	"id" : "obj-3",
																	"linecount" : 3,
																	"maxclass" : "newobj",
																	"numinlets" : 0,
																	"numoutlets" : 1,
																	"outlettype" : [ "" ],
																	"patching_rect" : [ 523.777777777777828, 20.0, 126.222222222222172, 46.0 ],
																	"text" : "in 5 @comment \"grain length max\" @min 1 @default 150"
																}

															}
, 															{
																"box" : 																{
																	"id" : "obj-2",
																	"linecount" : 3,
																	"maxclass" : "newobj",
																	"numinlets" : 0,
																	"numoutlets" : 1,
																	"outlettype" : [ "" ],
																	"patching_rect" : [ 380.0, 20.0, 122.0, 46.0 ],
																	"text" : "in 4 @comment \"grain length min\" @min 1 @default 20"
																}

															}
, 															{
																"box" : 																{
																	"id" : "obj-1",
																	"linecount" : 4,
																	"maxclass" : "newobj",
																	"numinlets" : 0,
																	"numoutlets" : 1,
																	"outlettype" : [ "" ],
																	"patching_rect" : [ 230.0, 20.0, 140.0, 59.0 ],
																	"text" : "in 3 @comment \"grain number\" @min 0 @max samplerate @default 32"
																}

															}
, 															{
																"box" : 																{
																	"id" : "obj-12",
																	"linecount" : 4,
																	"maxclass" : "comment",
																	"numinlets" : 1,
																	"numoutlets" : 0,
																	"patching_rect" : [ 657.222222222222172, 110.0, 150.0, 57.0 ],
																	"text" : "\n"
																}

															}
, 															{
																"box" : 																{
																	"id" : "obj-21",
																	"maxclass" : "newobj",
																	"numinlets" : 1,
																	"numoutlets" : 0,
																	"patching_rect" : [ 217.0, 1000.0, 164.0, 21.0 ],
																	"text" : "out 2 @comment \"output RF\""
																}

															}
, 															{
																"box" : 																{
																	"id" : "obj-20",
																	"maxclass" : "newobj",
																	"numinlets" : 1,
																	"numoutlets" : 0,
																	"patching_rect" : [ 20.0, 1000.0, 164.0, 21.0 ],
																	"text" : "out 1 @comment \"output LF\""
																}

															}
, 															{
																"box" : 																{
																	"code" : "/*\r\nreal-time granulator\r\n\r\nabout INFO\n0ch = flag\n1ch = grain counter\n2ch = grain size\n3ch = grain gain\n4ch = spread LF\n5ch = spread RF\n6ch = grain pos\r\n7ch = pitch\r\n8ch = pitch\r\n9ch = spread LR\r\n10ch = spread RR\r\n*/\r\n\r\nDelay BUF_L(samplerate*40, feedback = 1);\r\n//Delay BUF_R(samplerate*40, feedback = 1);\r\nData INFO(samplerate, 11);\r\nBuffer PITCH(\"pitch\");\r\nBuffer WINDOW(\"window\");\r\n\r\n\r\n\r\ng_num\t\t= ceil(in3);\r\ng_size\t\t= mstosamps(in4);\r\ng_trig\t\t= change(train(g_size/g_num)) == 1;\r\n\r\n\r\n// GENERATOR\r\nif(g_trig) {\r\n\tindex\t= -1;\r\n\tdetect\t= -1;\r\n\t\r\n\twhile(detect!=0 && index<g_num) {\r\n\t\tindex  += 1;\r\n\t\tdetect\t= peek(INFO, index, 0);\r\n\t}\r\n\t\r\n\tpoke(INFO, 1, index, 0);\t\t// flag\r\n\t//poke(INFO, 0, index, 1);\t\t// counter\r\n\t\r\n\t// size\r\n\tsize = scale(noise(), -1, 1, g_size, mstosamps(in5));\r\n\tpoke(INFO, size, index, 2);\r\n\t\r\n\t// gain\r\n\tgain = sqrt(scale(noise(), -1, 1, in6, in7));\r\n\tpoke(INFO, gain, index, 3);\r\n\t\r\n\t// grain pan\r\n\t//pval = 0.5 + noise()*0.5*in8;\r\n\thor = 0.5 + noise()*0.5*in8;\r\n\tver = 0.5 + noise()*0.5*in8;\r\n\t//pL\t = pow((1-pval), 0.75);\r\n\t//pR\t = pow(pval, 0.75);\r\n\tpLF = sqrt(1-hor) * sqrt(1-ver);\r\n\tpRF = sqrt(hor) * sqrt(1-ver);\r\n\tpLR\t= sqrt(1-hor) * sqrt(ver);\r\n\tpRR = sqrt(hor) * sqrt(ver);\r\n\t\t\r\n\tpoke(INFO, pLF, index, 4);\r\n\tpoke(INFO, pRF, index, 5);\r\n\tpoke(INFO, pLF, index, 9);\r\n\tpoke(INFO, pRF, index, 10);\r\n\t\r\n\t// position\r\n\tblur = mstosamps(in9) * abs(noise());\r\n\tpos\t = (size/g_num)*index + blur;\r\n\tpoke(INFO, pos, index, 6);\r\n\t\r\n\t// pitch\r\n\t//pitch_index = \r\n\t\r\n\tpitch_v = peek(PITCH, floor(abs(noise())*(dim(PITCH))));\r\n\tpitch_freq = (((1 - pitch_v) + noise()*in10)*samplerate)/size;\r\n\tpoke(INFO, pitch_freq, index, 7);\r\n\t//poke(INFO, 0, index, 8);\r\n\t\r\n}\r\n\r\n\r\nOUT_LF = 0;\r\nOUT_RF = 0;\r\nOUT_LR = 0;\r\nOUT_RR = 0;\r\n\r\n\r\n// SCHEDULER\r\nfor(i=0; i<g_num; i+=1) {\r\n\t\r\n\tflag = peek(INFO, i, 0) == 1;\r\n\t\r\n\tif(flag) {\r\n\t\tcont = peek(INFO, i, 1);\r\n\t\tsize = peek(INFO, i, 2);\r\n\t\tgain = peek(INFO, i, 3);\r\n\t\t//g_pn = peek(INFO, i, 4);\r\n\t\tpLF\t = peek(INFO, i, 4);\r\n\t\tpRF\t = peek(INFO, i, 5);\r\n\t\tpLR\t = peek(INFO, i, 9);\r\n\t\tpRR\t = peek(INFO, i, 10);\r\n\t\tpos\t = peek(INFO, i, 6);\r\n\t\tpitch_freq\t= peek(INFO, i, 7);\r\n\t\tpitch_phase\t= wrap(peek(INFO, i, 8), 0, 1);\r\n\t\t\r\n\t\tsigL = BUF_L.read(pos + pitch_phase*size);\r\n\t\t//sigR = BUF_R.read(pos + pitch_phase*size);\r\n\t\t\r\n\t\t//w = 0.5 - 0.5*cos(twopi*cont/(size-1));\r\n\t\tw = peek(WINDOW, cont/(size-1)*dim(WINDOW), 0);\r\n\t\t\r\n\t \tOUT_LF += sigL * w * gain * pLF;\r\n\t\tOUT_RF += sigL * w * gain * pRF;\r\n\t\tOUT_LR += sigL * w * gain * pLR;\r\n\t\tOUT_RR += sigL * w * gain * pRR;\r\n\t\t\r\n\t\tcont += 1;\r\n\t\tpoke(INFO, cont, i, 1);\r\n\t\tpoke(INFO, pitch_freq/samplerate + pitch_phase, i, 8);\r\n\t\t\r\n\t\tif(cont >= size-1) {\r\n\t\t\tpoke(INFO, 0, i, 0);\r\n\t\t\tpoke(INFO, 0, i, 1);\r\n\t\t\tpoke(INFO, 0, i, 2);\r\n\t\t\tpoke(INFO, 0, i, 3);\r\n\t\t\tpoke(INFO, 0, i, 4);\r\n\t\t\tpoke(INFO, 0, i, 5);\r\n\t\t\tpoke(INFO, 0, i, 6);\r\n\t\t\tpoke(INFO, 0, i, 7);\r\n\t\t\tpoke(INFO, 0, i, 8);\r\n\t\t\tpoke(INFO, 0, i, 9);\r\n\t\t\tpoke(INFO, 0, i, 10);\r\n\t\t}\r\n\t}\r\n}\r\n\r\nout1 = OUT_LF;\r\nout2 = OUT_RF;\r\nout3 = OUT_LR;\r\nout4 = OUT_RR;\r\n\r\nBUF_L.write(in1 + dcblock((OUT_LF+OUT_RF+OUT_LR+OUT_RR)*0.25*in11));\r\n//BUF_R.write(in2 + dcblock(OUT_R*in11));",
																	"fontface" : 0,
																	"fontname" : "<Monospaced>",
																	"fontsize" : 12.0,
																	"id" : "obj-9",
																	"maxclass" : "codebox",
																	"numinlets" : 11,
																	"numoutlets" : 4,
																	"outlettype" : [ "", "", "", "" ],
																	"patching_rect" : [ 20.0, 100.0, 610.0, 880.0 ]
																}

															}
, 															{
																"box" : 																{
																	"id" : "obj-8",
																	"linecount" : 2,
																	"maxclass" : "newobj",
																	"numinlets" : 0,
																	"numoutlets" : 1,
																	"outlettype" : [ "" ],
																	"patching_rect" : [ 120.0, 20.0, 96.555555555555543, 34.0 ],
																	"text" : "in 2 @comment \"input R\""
																}

															}
, 															{
																"box" : 																{
																	"id" : "obj-7",
																	"linecount" : 2,
																	"maxclass" : "newobj",
																	"numinlets" : 0,
																	"numoutlets" : 1,
																	"outlettype" : [ "" ],
																	"patching_rect" : [ 20.0, 20.0, 92.0, 34.0 ],
																	"text" : "in 1 @comment \"input L\""
																}

															}
 ],
														"lines" : [ 															{
																"patchline" : 																{
																	"destination" : [ "obj-9", 2 ],
																	"source" : [ "obj-1", 0 ]
																}

															}
, 															{
																"patchline" : 																{
																	"destination" : [ "obj-9", 9 ],
																	"source" : [ "obj-10", 0 ]
																}

															}
, 															{
																"patchline" : 																{
																	"destination" : [ "obj-9", 7 ],
																	"source" : [ "obj-11", 0 ]
																}

															}
, 															{
																"patchline" : 																{
																	"destination" : [ "obj-9", 3 ],
																	"source" : [ "obj-2", 0 ]
																}

															}
, 															{
																"patchline" : 																{
																	"destination" : [ "obj-9", 4 ],
																	"source" : [ "obj-3", 0 ]
																}

															}
, 															{
																"patchline" : 																{
																	"destination" : [ "obj-9", 10 ],
																	"source" : [ "obj-32", 0 ]
																}

															}
, 															{
																"patchline" : 																{
																	"destination" : [ "obj-9", 8 ],
																	"source" : [ "obj-4", 0 ]
																}

															}
, 															{
																"patchline" : 																{
																	"destination" : [ "obj-9", 5 ],
																	"source" : [ "obj-5", 0 ]
																}

															}
, 															{
																"patchline" : 																{
																	"destination" : [ "obj-9", 6 ],
																	"source" : [ "obj-6", 0 ]
																}

															}
, 															{
																"patchline" : 																{
																	"destination" : [ "obj-9", 0 ],
																	"midpoints" : [ 29.5, 57.0, 29.5, 57.0 ],
																	"source" : [ "obj-7", 0 ]
																}

															}
, 															{
																"patchline" : 																{
																	"destination" : [ "obj-14", 0 ],
																	"source" : [ "obj-9", 3 ]
																}

															}
, 															{
																"patchline" : 																{
																	"destination" : [ "obj-15", 0 ],
																	"source" : [ "obj-9", 2 ]
																}

															}
, 															{
																"patchline" : 																{
																	"destination" : [ "obj-20", 0 ],
																	"source" : [ "obj-9", 0 ]
																}

															}
, 															{
																"patchline" : 																{
																	"destination" : [ "obj-21", 0 ],
																	"source" : [ "obj-9", 1 ]
																}

															}
 ]
													}
,
													"patching_rect" : [ 506.0, 957.0, 719.0, 22.0 ],
													"text" : "gen~ @gen cs.granular.rt1_for_metomimi.gendsp"
												}

											}
, 											{
												"box" : 												{
													"comment" : "",
													"id" : "obj-1",
													"index" : 3,
													"maxclass" : "inlet",
													"numinlets" : 0,
													"numoutlets" : 1,
													"outlettype" : [ "" ],
													"patching_rect" : [ 261.0, 83.0, 30.0, 30.0 ]
												}

											}
, 											{
												"box" : 												{
													"comment" : "",
													"id" : "obj-13",
													"index" : 2,
													"maxclass" : "inlet",
													"numinlets" : 0,
													"numoutlets" : 1,
													"outlettype" : [ "" ],
													"patching_rect" : [ 146.0, 163.0, 30.0, 30.0 ]
												}

											}
, 											{
												"box" : 												{
													"comment" : "",
													"id" : "obj-14",
													"index" : 1,
													"maxclass" : "outlet",
													"numinlets" : 1,
													"numoutlets" : 0,
													"patching_rect" : [ 506.0, 1067.0, 30.0, 30.0 ]
												}

											}
, 											{
												"box" : 												{
													"comment" : "",
													"id" : "obj-15",
													"index" : 1,
													"maxclass" : "inlet",
													"numinlets" : 0,
													"numoutlets" : 1,
													"outlettype" : [ "signal" ],
													"patching_rect" : [ 60.0, 192.0, 30.0, 30.0 ]
												}

											}
 ],
										"lines" : [ 											{
												"patchline" : 												{
													"destination" : [ "obj-66", 0 ],
													"source" : [ "obj-1", 0 ]
												}

											}
, 											{
												"patchline" : 												{
													"destination" : [ "obj-30", 7 ],
													"source" : [ "obj-10", 0 ]
												}

											}
, 											{
												"patchline" : 												{
													"destination" : [ "obj-84", 0 ],
													"source" : [ "obj-103", 0 ]
												}

											}
, 											{
												"patchline" : 												{
													"destination" : [ "obj-8", 0 ],
													"source" : [ "obj-11", 0 ]
												}

											}
, 											{
												"patchline" : 												{
													"destination" : [ "obj-85", 0 ],
													"source" : [ "obj-117", 0 ]
												}

											}
, 											{
												"patchline" : 												{
													"destination" : [ "obj-30", 8 ],
													"source" : [ "obj-12", 0 ]
												}

											}
, 											{
												"patchline" : 												{
													"destination" : [ "obj-80", 0 ],
													"source" : [ "obj-129", 0 ]
												}

											}
, 											{
												"patchline" : 												{
													"destination" : [ "obj-31", 0 ],
													"source" : [ "obj-13", 0 ]
												}

											}
, 											{
												"patchline" : 												{
													"destination" : [ "obj-224", 1 ],
													"midpoints" : [ 758.000000000000227, 400.0, 998.000000000000227, 400.0 ],
													"source" : [ "obj-136", 1 ]
												}

											}
, 											{
												"patchline" : 												{
													"destination" : [ "obj-68", 0 ],
													"midpoints" : [ 739.000000000000227, 396.0, 577.750000000000227, 396.0 ],
													"source" : [ "obj-136", 0 ]
												}

											}
, 											{
												"patchline" : 												{
													"destination" : [ "obj-271", 1 ],
													"source" : [ "obj-142", 0 ]
												}

											}
, 											{
												"patchline" : 												{
													"destination" : [ "obj-30", 0 ],
													"source" : [ "obj-15", 0 ]
												}

											}
, 											{
												"patchline" : 												{
													"destination" : [ "obj-242", 0 ],
													"midpoints" : [ 998.000000000000227, 510.0, 900.000000000000227, 510.0 ],
													"source" : [ "obj-154", 0 ]
												}

											}
, 											{
												"patchline" : 												{
													"destination" : [ "obj-30", 9 ],
													"source" : [ "obj-16", 0 ]
												}

											}
, 											{
												"patchline" : 												{
													"destination" : [ "obj-30", 5 ],
													"source" : [ "obj-17", 0 ]
												}

											}
, 											{
												"patchline" : 												{
													"destination" : [ "obj-30", 6 ],
													"source" : [ "obj-18", 0 ]
												}

											}
, 											{
												"patchline" : 												{
													"destination" : [ "obj-30", 10 ],
													"source" : [ "obj-19", 0 ]
												}

											}
, 											{
												"patchline" : 												{
													"destination" : [ "obj-142", 0 ],
													"midpoints" : [ 824.000000000000227, 249.0, 1238.650000000000318, 249.0, 1238.650000000000318, 630.0, 900.000000000000227, 630.0 ],
													"source" : [ "obj-198", 2 ]
												}

											}
, 											{
												"patchline" : 												{
													"destination" : [ "obj-71", 0 ],
													"midpoints" : [ 781.500000000000227, 249.0, 739.000000000000227, 249.0 ],
													"source" : [ "obj-198", 1 ]
												}

											}
, 											{
												"patchline" : 												{
													"destination" : [ "obj-71", 0 ],
													"source" : [ "obj-198", 0 ]
												}

											}
, 											{
												"patchline" : 												{
													"destination" : [ "obj-12", 0 ],
													"source" : [ "obj-2", 0 ]
												}

											}
, 											{
												"patchline" : 												{
													"destination" : [ "obj-11", 0 ],
													"source" : [ "obj-20", 4 ]
												}

											}
, 											{
												"patchline" : 												{
													"destination" : [ "obj-36", 0 ],
													"midpoints" : [ 819.500000000000227, 200.0, 1326.5, 200.0 ],
													"source" : [ "obj-20", 2 ]
												}

											}
, 											{
												"patchline" : 												{
													"destination" : [ "obj-38", 0 ],
													"midpoints" : [ 859.750000000000227, 200.0, 1423.5, 200.0 ],
													"source" : [ "obj-20", 3 ]
												}

											}
, 											{
												"patchline" : 												{
													"destination" : [ "obj-67", 0 ],
													"midpoints" : [ 779.250000000000227, 169.0, 516.5, 169.0 ],
													"source" : [ "obj-20", 1 ]
												}

											}
, 											{
												"patchline" : 												{
													"destination" : [ "obj-9", 0 ],
													"source" : [ "obj-20", 0 ]
												}

											}
, 											{
												"patchline" : 												{
													"destination" : [ "obj-37", 0 ],
													"source" : [ "obj-21", 0 ]
												}

											}
, 											{
												"patchline" : 												{
													"destination" : [ "obj-32", 0 ],
													"source" : [ "obj-224", 0 ]
												}

											}
, 											{
												"patchline" : 												{
													"destination" : [ "obj-72", 0 ],
													"source" : [ "obj-224", 1 ]
												}

											}
, 											{
												"patchline" : 												{
													"destination" : [ "obj-242", 0 ],
													"source" : [ "obj-226", 0 ]
												}

											}
, 											{
												"patchline" : 												{
													"destination" : [ "obj-30", 2 ],
													"source" : [ "obj-23", 0 ]
												}

											}
, 											{
												"patchline" : 												{
													"destination" : [ "obj-224", 0 ],
													"source" : [ "obj-239", 0 ]
												}

											}
, 											{
												"patchline" : 												{
													"destination" : [ "obj-67", 0 ],
													"midpoints" : [ 516.5, 357.0, 493.0, 357.0, 493.0, 267.0, 516.5, 267.0 ],
													"source" : [ "obj-24", 0 ]
												}

											}
, 											{
												"patchline" : 												{
													"destination" : [ "obj-239", 0 ],
													"source" : [ "obj-240", 0 ]
												}

											}
, 											{
												"patchline" : 												{
													"destination" : [ "obj-142", 0 ],
													"midpoints" : [ 1200.000000000000682, 629.0, 900.000000000000227, 629.0 ],
													"source" : [ "obj-242", 3 ]
												}

											}
, 											{
												"patchline" : 												{
													"destination" : [ "obj-142", 0 ],
													"source" : [ "obj-242", 0 ]
												}

											}
, 											{
												"patchline" : 												{
													"destination" : [ "obj-273", 0 ],
													"source" : [ "obj-242", 2 ]
												}

											}
, 											{
												"patchline" : 												{
													"destination" : [ "obj-274", 0 ],
													"source" : [ "obj-242", 1 ]
												}

											}
, 											{
												"patchline" : 												{
													"destination" : [ "obj-30", 3 ],
													"source" : [ "obj-25", 0 ]
												}

											}
, 											{
												"patchline" : 												{
													"destination" : [ "obj-30", 0 ],
													"midpoints" : [ 1423.5, 943.0, 515.5, 943.0 ],
													"source" : [ "obj-26", 0 ]
												}

											}
, 											{
												"patchline" : 												{
													"destination" : [ "obj-142", 0 ],
													"midpoints" : [ 1000.000000000000227, 629.0, 900.000000000000227, 629.0 ],
													"source" : [ "obj-265", 0 ]
												}

											}
, 											{
												"patchline" : 												{
													"destination" : [ "obj-77", 0 ],
													"source" : [ "obj-268", 0 ]
												}

											}
, 											{
												"patchline" : 												{
													"destination" : [ "obj-30", 4 ],
													"source" : [ "obj-27", 0 ]
												}

											}
, 											{
												"patchline" : 												{
													"destination" : [ "obj-268", 1 ],
													"source" : [ "obj-271", 1 ]
												}

											}
, 											{
												"patchline" : 												{
													"destination" : [ "obj-268", 0 ],
													"source" : [ "obj-271", 0 ]
												}

											}
, 											{
												"patchline" : 												{
													"destination" : [ "obj-142", 0 ],
													"midpoints" : [ 1100.000000000000227, 629.0, 900.000000000000227, 629.0 ],
													"source" : [ "obj-273", 0 ]
												}

											}
, 											{
												"patchline" : 												{
													"destination" : [ "obj-271", 0 ],
													"midpoints" : [ 1162.000000000000227, 680.0, 863.000000000000227, 680.0 ],
													"source" : [ "obj-273", 1 ]
												}

											}
, 											{
												"patchline" : 												{
													"destination" : [ "obj-265", 0 ],
													"source" : [ "obj-274", 0 ]
												}

											}
, 											{
												"patchline" : 												{
													"destination" : [ "obj-271", 0 ],
													"midpoints" : [ 1062.000000000000227, 680.0, 863.000000000000227, 680.0 ],
													"source" : [ "obj-274", 1 ]
												}

											}
, 											{
												"patchline" : 												{
													"destination" : [ "obj-21", 0 ],
													"source" : [ "obj-29", 1 ]
												}

											}
, 											{
												"patchline" : 												{
													"destination" : [ "obj-24", 0 ],
													"source" : [ "obj-29", 0 ]
												}

											}
, 											{
												"patchline" : 												{
													"destination" : [ "obj-45", 3 ],
													"source" : [ "obj-30", 3 ]
												}

											}
, 											{
												"patchline" : 												{
													"destination" : [ "obj-45", 2 ],
													"source" : [ "obj-30", 2 ]
												}

											}
, 											{
												"patchline" : 												{
													"destination" : [ "obj-45", 1 ],
													"source" : [ "obj-30", 1 ]
												}

											}
, 											{
												"patchline" : 												{
													"destination" : [ "obj-45", 0 ],
													"source" : [ "obj-30", 0 ]
												}

											}
, 											{
												"patchline" : 												{
													"destination" : [ "obj-10", 0 ],
													"order" : 1,
													"source" : [ "obj-31", 0 ]
												}

											}
, 											{
												"patchline" : 												{
													"destination" : [ "obj-47", 0 ],
													"order" : 0,
													"source" : [ "obj-31", 0 ]
												}

											}
, 											{
												"patchline" : 												{
													"destination" : [ "obj-226", 0 ],
													"source" : [ "obj-32", 0 ]
												}

											}
, 											{
												"patchline" : 												{
													"destination" : [ "obj-129", 0 ],
													"source" : [ "obj-35", 0 ]
												}

											}
, 											{
												"patchline" : 												{
													"destination" : [ "obj-7", 0 ],
													"source" : [ "obj-36", 0 ]
												}

											}
, 											{
												"patchline" : 												{
													"destination" : [ "obj-68", 1 ],
													"source" : [ "obj-37", 1 ]
												}

											}
, 											{
												"patchline" : 												{
													"destination" : [ "obj-68", 0 ],
													"source" : [ "obj-37", 0 ]
												}

											}
, 											{
												"patchline" : 												{
													"destination" : [ "obj-26", 0 ],
													"source" : [ "obj-38", 0 ]
												}

											}
, 											{
												"patchline" : 												{
													"destination" : [ "obj-87", 0 ],
													"source" : [ "obj-44", 0 ]
												}

											}
, 											{
												"patchline" : 												{
													"destination" : [ "obj-14", 0 ],
													"source" : [ "obj-45", 0 ]
												}

											}
, 											{
												"patchline" : 												{
													"destination" : [ "obj-19", 0 ],
													"source" : [ "obj-47", 0 ]
												}

											}
, 											{
												"patchline" : 												{
													"destination" : [ "obj-57", 0 ],
													"source" : [ "obj-55", 0 ]
												}

											}
, 											{
												"patchline" : 												{
													"destination" : [ "obj-16", 0 ],
													"source" : [ "obj-57", 0 ]
												}

											}
, 											{
												"patchline" : 												{
													"destination" : [ "obj-8", 0 ],
													"source" : [ "obj-6", 0 ]
												}

											}
, 											{
												"patchline" : 												{
													"destination" : [ "obj-103", 0 ],
													"source" : [ "obj-66", 0 ]
												}

											}
, 											{
												"patchline" : 												{
													"destination" : [ "obj-55", 0 ],
													"source" : [ "obj-66", 1 ]
												}

											}
, 											{
												"patchline" : 												{
													"destination" : [ "obj-29", 0 ],
													"source" : [ "obj-67", 0 ]
												}

											}
, 											{
												"patchline" : 												{
													"destination" : [ "obj-44", 0 ],
													"source" : [ "obj-68", 0 ]
												}

											}
, 											{
												"patchline" : 												{
													"destination" : [ "obj-30", 0 ],
													"midpoints" : [ 1326.5, 943.0, 515.5, 943.0 ],
													"source" : [ "obj-7", 0 ]
												}

											}
, 											{
												"patchline" : 												{
													"destination" : [ "obj-136", 0 ],
													"source" : [ "obj-71", 0 ]
												}

											}
, 											{
												"patchline" : 												{
													"destination" : [ "obj-240", 0 ],
													"midpoints" : [ 1193.000000000000227, 322.0, 900.000000000000227, 322.0 ],
													"source" : [ "obj-71", 1 ]
												}

											}
, 											{
												"patchline" : 												{
													"destination" : [ "obj-154", 0 ],
													"source" : [ "obj-72", 0 ]
												}

											}
, 											{
												"patchline" : 												{
													"destination" : [ "obj-20", 0 ],
													"source" : [ "obj-76", 0 ]
												}

											}
, 											{
												"patchline" : 												{
													"destination" : [ "obj-35", 0 ],
													"midpoints" : [ 863.000000000000227, 788.0, 799.25, 788.0, 799.25, 568.0, 577.750000000000227, 568.0 ],
													"source" : [ "obj-77", 0 ]
												}

											}
, 											{
												"patchline" : 												{
													"destination" : [ "obj-88", 0 ],
													"source" : [ "obj-80", 0 ]
												}

											}
, 											{
												"patchline" : 												{
													"destination" : [ "obj-71", 0 ],
													"order" : 0,
													"source" : [ "obj-84", 0 ]
												}

											}
, 											{
												"patchline" : 												{
													"destination" : [ "obj-92", 1 ],
													"order" : 1,
													"source" : [ "obj-84", 0 ]
												}

											}
, 											{
												"patchline" : 												{
													"destination" : [ "obj-35", 0 ],
													"source" : [ "obj-85", 0 ]
												}

											}
, 											{
												"patchline" : 												{
													"destination" : [ "obj-117", 0 ],
													"source" : [ "obj-87", 0 ]
												}

											}
, 											{
												"patchline" : 												{
													"destination" : [ "obj-22", 0 ],
													"source" : [ "obj-88", 0 ]
												}

											}
, 											{
												"patchline" : 												{
													"destination" : [ "obj-198", 0 ],
													"source" : [ "obj-9", 0 ]
												}

											}
 ]
									}
,
									"patching_rect" : [ 22.0, 76.0, 147.0, 22.0 ],
									"saved_object_attributes" : 									{
										"description" : "",
										"digest" : "",
										"globalpatchername" : "",
										"tags" : ""
									}
,
									"text" : "p effect"
								}

							}
, 							{
								"box" : 								{
									"comment" : "",
									"id" : "obj-7",
									"index" : 4,
									"maxclass" : "inlet",
									"numinlets" : 0,
									"numoutlets" : 1,
									"outlettype" : [ "multichannelsignal" ],
									"patching_rect" : [ 182.0, 19.0, 30.0, 30.0 ]
								}

							}
, 							{
								"box" : 								{
									"comment" : "",
									"id" : "obj-5",
									"index" : 3,
									"maxclass" : "inlet",
									"numinlets" : 0,
									"numoutlets" : 1,
									"outlettype" : [ "" ],
									"patching_rect" : [ 150.0, 19.0, 30.0, 30.0 ]
								}

							}
, 							{
								"box" : 								{
									"comment" : "",
									"id" : "obj-4",
									"index" : 2,
									"maxclass" : "inlet",
									"numinlets" : 0,
									"numoutlets" : 1,
									"outlettype" : [ "" ],
									"patching_rect" : [ 86.0, 19.0, 30.0, 30.0 ]
								}

							}
, 							{
								"box" : 								{
									"comment" : "",
									"id" : "obj-3",
									"index" : 1,
									"maxclass" : "outlet",
									"numinlets" : 1,
									"numoutlets" : 0,
									"patching_rect" : [ 22.0, 330.0, 30.0, 30.0 ]
								}

							}
, 							{
								"box" : 								{
									"comment" : "",
									"id" : "obj-1",
									"index" : 1,
									"maxclass" : "inlet",
									"numinlets" : 0,
									"numoutlets" : 1,
									"outlettype" : [ "signal" ],
									"patching_rect" : [ 22.0, 19.0, 30.0, 30.0 ]
								}

							}
 ],
						"lines" : [ 							{
								"patchline" : 								{
									"destination" : [ "obj-16", 0 ],
									"source" : [ "obj-1", 0 ]
								}

							}
, 							{
								"patchline" : 								{
									"destination" : [ "obj-17", 0 ],
									"midpoints" : [ 31.5, 110.5, 170.5, 110.5 ],
									"order" : 1,
									"source" : [ "obj-16", 0 ]
								}

							}
, 							{
								"patchline" : 								{
									"destination" : [ "obj-21", 0 ],
									"order" : 2,
									"source" : [ "obj-16", 0 ]
								}

							}
, 							{
								"patchline" : 								{
									"destination" : [ "obj-8", 0 ],
									"midpoints" : [ 31.5, 110.5, 235.5, 110.5 ],
									"order" : 0,
									"source" : [ "obj-16", 0 ]
								}

							}
, 							{
								"patchline" : 								{
									"destination" : [ "obj-21", 1 ],
									"midpoints" : [ 170.5, 154.5, 133.5, 154.5 ],
									"source" : [ "obj-17", 0 ]
								}

							}
, 							{
								"patchline" : 								{
									"destination" : [ "obj-17", 1 ],
									"source" : [ "obj-2", 0 ]
								}

							}
, 							{
								"patchline" : 								{
									"destination" : [ "obj-8", 1 ],
									"source" : [ "obj-2", 1 ]
								}

							}
, 							{
								"patchline" : 								{
									"destination" : [ "obj-3", 0 ],
									"source" : [ "obj-21", 0 ]
								}

							}
, 							{
								"patchline" : 								{
									"destination" : [ "obj-16", 1 ],
									"source" : [ "obj-4", 0 ]
								}

							}
, 							{
								"patchline" : 								{
									"destination" : [ "obj-16", 2 ],
									"source" : [ "obj-5", 0 ]
								}

							}
, 							{
								"patchline" : 								{
									"destination" : [ "obj-2", 0 ],
									"source" : [ "obj-7", 0 ]
								}

							}
, 							{
								"patchline" : 								{
									"destination" : [ "obj-21", 2 ],
									"source" : [ "obj-8", 0 ]
								}

							}
 ]
					}
,
					"patching_rect" : [ 24.0, 412.0, 313.0, 22.0 ],
					"saved_object_attributes" : 					{
						"description" : "",
						"digest" : "",
						"globalpatchername" : "",
						"tags" : ""
					}
,
					"text" : "p mod"
				}

			}
, 			{
				"box" : 				{
					"bgmode" : 0,
					"border" : 0,
					"clickthrough" : 0,
					"enablehscroll" : 0,
					"enablevscroll" : 0,
					"id" : "obj-2",
					"lockeddragscroll" : 0,
					"maxclass" : "bpatcher",
					"name" : "module_input_selector.maxpat",
					"numinlets" : 2,
					"numoutlets" : 1,
					"offset" : [ 0.0, 0.0 ],
					"outlettype" : [ "signal" ],
					"patching_rect" : [ 24.0, 153.0, 90.0, 237.0 ],
					"presentation" : 1,
					"presentation_rect" : [ 24.0, 76.0, 90.0, 237.0 ],
					"viewvisibility" : 1
				}

			}
 ],
		"lines" : [ 			{
				"patchline" : 				{
					"destination" : [ "obj-2", 0 ],
					"source" : [ "obj-12", 0 ]
				}

			}
, 			{
				"patchline" : 				{
					"destination" : [ "obj-2", 1 ],
					"source" : [ "obj-13", 0 ]
				}

			}
, 			{
				"patchline" : 				{
					"destination" : [ "obj-4", 0 ],
					"source" : [ "obj-14", 0 ]
				}

			}
, 			{
				"patchline" : 				{
					"destination" : [ "obj-16", 0 ],
					"source" : [ "obj-15", 0 ]
				}

			}
, 			{
				"patchline" : 				{
					"destination" : [ "obj-14", 0 ],
					"source" : [ "obj-16", 0 ]
				}

			}
, 			{
				"patchline" : 				{
					"destination" : [ "obj-5", 0 ],
					"source" : [ "obj-17", 0 ]
				}

			}
, 			{
				"patchline" : 				{
					"destination" : [ "obj-6", 0 ],
					"source" : [ "obj-19", 0 ]
				}

			}
, 			{
				"patchline" : 				{
					"destination" : [ "obj-3", 0 ],
					"source" : [ "obj-2", 0 ]
				}

			}
, 			{
				"patchline" : 				{
					"destination" : [ "obj-9", 0 ],
					"source" : [ "obj-21", 0 ]
				}

			}
, 			{
				"patchline" : 				{
					"destination" : [ "obj-14", 0 ],
					"source" : [ "obj-3", 0 ]
				}

			}
, 			{
				"patchline" : 				{
					"destination" : [ "obj-3", 3 ],
					"source" : [ "obj-30", 0 ]
				}

			}
, 			{
				"patchline" : 				{
					"destination" : [ "obj-3", 1 ],
					"source" : [ "obj-5", 0 ]
				}

			}
, 			{
				"patchline" : 				{
					"destination" : [ "obj-3", 2 ],
					"source" : [ "obj-6", 0 ]
				}

			}
, 			{
				"patchline" : 				{
					"destination" : [ "obj-30", 0 ],
					"source" : [ "obj-9", 0 ]
				}

			}
 ]
	}

}
